<?xml version="1.0" encoding="UTF-8"?>
<svg id="Camada_2" data-name="Camada 2" xmlns="http://www.w3.org/2000/svg" viewBox="0 0 221.58 350.98">
  <defs>
    <style>
      .cls-1 {
        fill: #fff;
      }

      .cls-2 {
        fill: #b1beaa;
      }
    </style>
  </defs>
  <g id="Camada_1-2" data-name="Camada 1">
    <g>
      <path class="cls-2" d="M108.12,345.27c-2.62,0-4.92-1.79-5.54-4.36-12.84-52.56-20.26-174.03-21.84-224.62,0-.04-.02-1.17-.02-1.17-.02-1.89-.05-3.82-.09-5.74-.11-1.01-.7-3-1.35-4.98-16.01,17.35-23.55,44.43-20.33,74.38,.28,2.57-1.21,5.01-3.63,5.94-.67,.26-1.36,.38-2.05,.38-1.79,0-3.53-.84-4.63-2.36-14.55-20.08-21.18-44.15-17.74-64.38,2.6-15.25,10.79-28.04,23.69-36.99,2.89-2.01,5.84-5.35,8.45-8.72l-2.22-.67c-.19-.06-.37-.12-.55-.2l-.13-.06c-.61-.25-1.23-.52-1.94-.52-.23,0-.47,.03-.71,.08-.07,.02-.15,.03-.22,.05-17.21,3.31-32.72,11.84-42.7,18.41-.96,.63-2.05,.94-3.14,.94-1.35,0-2.7-.48-3.77-1.42-1.93-1.7-2.49-4.48-1.37-6.79,15.19-31.25,34.22-46.68,58.17-47.19,.95-.09,2.62-.48,4.26-.9-.18-.54-.35-1.08-.53-1.61-1.99-6.08-3.55-10.89-9.12-14.84-1.92-1.36-2.81-3.76-2.24-6.04,.57-2.28,2.48-3.98,4.81-4.28,1.98-.26,3.89-.39,5.69-.39,12.72,0,18.72,6.47,22.69,10.75,2.14,2.3,3.41,3.61,4.7,3.75,.02,0,.12,0,.23,0,.95,0,1.87-.42,2.83-1.28,10.63-9.78,24.21-14.76,40.31-14.76,10.13,0,21.42,2,33.54,5.94,2.43,.79,4.04,3.1,3.94,5.65-.1,2.55-1.88,4.73-4.36,5.33-13.14,3.19-31.1,8.88-42.51,17.9-.84,1.02-2.53,3.11-4.3,5.31,2.54-.04,5.07-.11,7.54-.18,3.88-.11,7.88-.21,11.76-.21,20.7,0,44.11,2.55,59.86,33.06,6.7,12.5,10.15,25.71,12.16,34.56,.58,2.56-.66,5.19-3.01,6.37-.82,.41-1.69,.61-2.56,.61-1.63,0-3.23-.7-4.34-2-15.91-18.62-40.44-30.86-62.33-40.37-.04-.02-.09-.04-.13-.06-4.85-2.25-9.58-3.21-15.82-3.21-.52,0-1.04,0-1.57,.02,3.21,3.86,6.67,7.65,9.59,9.71,.03,.02,.06,.04,.08,.06,23.38,17.18,33.56,43.33,27.93,71.76-.49,2.5-2.58,4.37-5.12,4.58-.16,.01-.32,.02-.48,.02-2.35,0-4.48-1.45-5.33-3.68-6.92-18.15-19.36-34.09-31.78-48.61-.78-.79-2.61-2.01-4.4-3.15-.43,1.98-.83,4-.84,4.99,.27,6.41,.5,12.94,.73,19.26,1.68,37.7,8.18,164.22,21.21,207.21,.51,1.68,.22,3.5-.79,4.93s-2.61,2.33-4.36,2.43l-23.96,1.32c-.11,0-.21,0-.32,0Z"/>
      <path class="cls-1" d="M138.09,11.42c10.4,0,21.24,2.23,31.77,5.66-15.93,3.87-33.75,10.08-45.19,19.36-1.55,1.86-10.4,12.89-12.17,15.01,2.44,.1,4.87,.14,7.29,.14,8.19,0,16.2-.43,23.92-.43,21.78,0,41.1,3.47,54.79,29.97,5.86,10.95,9.25,22.61,11.66,33.2-16.28-19.06-40.9-31.69-64.4-41.9-6.46-3-12.25-3.74-18.22-3.74-4.16,0-8.41,.36-13.03,.57,4.62,5.74,11.73,15.27,17.76,19.54,21.69,15.93,30.9,39.82,25.71,66.05-7.19-18.87-19.86-35.2-32.89-50.41-2.52-2.67-9.65-6.42-12.5-8.57-.42,3.2-2.7,10.99-2.69,14.35,.27,6.44,.5,13.01,.73,19.36,2.02,45.35,8.52,165.99,21.45,208.66l-23.96,1.32c-12.56-51.41-20.02-170.18-21.68-223.45-.03-2.3-.05-4.69-.11-7.05-.27-3.54-3.56-11.54-4.38-15.02-24.34,20-32,54.5-28.68,85.36-21.08-29.1-27.26-71.24,4.58-93.33,5.56-3.88,10.71-11.08,14.58-16.56,0,0-9.96-2.99-9.96-2.99-.85-.35-2.32-1.01-4.27-1.01-.62,0-1.3,.07-2.01,.24-15.89,3.06-31.51,10.52-44.76,19.24,11.32-23.27,27.54-43.52,53.33-43.99,2.91-.22,8.75-2.06,11.56-2.62-4-9-4.16-18.15-13.94-25.09,1.79-.23,3.44-.34,4.96-.34,17.12,0,18.13,13.53,26.77,14.47,.26,.03,.54,.04,.84,.04,1.81,0,4.22-.55,6.66-2.75,10.43-9.6,23.11-13.29,36.49-13.29m0-11.42s0,0,0,0c-16.94,0-31.36,5.09-42.92,15.14-.33-.35-.67-.71-.96-1.03-4.36-4.7-11.66-12.58-26.88-12.58-2.04,0-4.21,.15-6.43,.43-4.66,.6-8.48,4-9.62,8.57-1.14,4.56,.64,9.36,4.48,12.08,2.69,1.9,4.05,3.97,5.31,7.13-13.38,1.01-25.53,6.49-36.17,16.31-8.86,8.18-16.63,19.29-23.76,33.94-2.25,4.63-1.13,10.18,2.73,13.58,2.14,1.88,4.83,2.84,7.54,2.84,2.18,0,4.36-.62,6.28-1.88,7.27-4.78,17.58-10.65,29.28-14.56-11.68,9.58-19.15,22.42-21.71,37.44-3.7,21.71,3.31,47.39,18.75,68.69,2.2,3.03,5.67,4.72,9.25,4.72,1.37,0,2.76-.25,4.1-.76,4.83-1.86,7.81-6.73,7.26-11.88-2.4-22.34,1.45-42.91,10.5-58.52,1.79,52.53,9.22,170.7,21.9,222.61,1.25,5.14,5.86,8.71,11.09,8.71,.21,0,.42,0,.63-.02l23.96-1.32c3.5-.19,6.72-1.98,8.73-4.85s2.59-6.51,1.57-9.86c-12.82-42.33-19.29-168.16-20.97-205.81-.13-3.72-.27-7.4-.4-11.05,10.28,12.46,19.99,25.96,25.67,40.85,1.7,4.45,5.97,7.35,10.67,7.35,.32,0,.64-.01,.97-.04,5.07-.43,9.25-4.17,10.24-9.16,5.53-27.97-3.1-53.9-23.78-72.32,20.17,8.98,41.9,20.41,56.07,37,2.23,2.61,5.43,4,8.69,4,1.73,0,3.49-.4,5.12-1.21,4.7-2.36,7.18-7.61,6.02-12.74-2.08-9.15-5.65-22.82-12.69-35.99-16.41-31.7-40.89-36.07-64.9-36.07-1.1,0-2.21,0-3.32,.02,8.26-4.46,19.31-8.46,32.17-11.58,4.96-1.21,8.52-5.56,8.72-10.66,.19-5.1-3.02-9.72-7.88-11.3C160.7,2.09,148.83,0,138.09,0h0Z"/>
    </g>
  </g>
</svg>