<?xml version="1.0" encoding="UTF-8"?>
<svg id="Camada_2" data-name="Camada 2" xmlns="http://www.w3.org/2000/svg" viewBox="0 0 472.03 267.45">
  <defs>
    <style>
      .cls-1 {
        fill: #fff;
      }

      .cls-2 {
        fill: #083629;
      }

      .cls-3 {
        fill: #f0782c;
      }
    </style>
  </defs>
  <g id="Camada_1-2" data-name="Camada 1">
    <g>
      <path class="cls-1" d="M470.9,138.04c-.32-4.98-.62-9.94-.92-14.83-3.53-57.4-6.07-90.5-17.32-103.21-4.24-4.78-13.83-10.89-50.71-15.7-20.4-2.66-41.51-3.86-49.98-3.86-.33,0-.64,0-.93,0-.21,0-.44,0-.67,0-1.77,0-4.22-.07-7.05-.16C338.74,.17,333.05,0,326.27,0c-35.23,0-67.72,4.78-99.32,14.6C168.95,32.63,50.2,51.85,49.01,52.04c-.05,0-.1,.02-.15,.03l-24.4,4.35c-11.68,2.08-20.46,11.8-21.36,23.63-2.24,29.65-5.29,82.21-.77,103.08,.39,2.98,2.21,8.95,10.03,14.65,7.97,5.82,20.33,9.89,36.81,12.16,.42,2.19,1,4.73,1.82,7.32,5.58,17.8,16.54,20.64,22.59,20.75,9.75,.17,27.49,.18,28.24,.18h2.62l2.44-.95c2.12-.82,9.98-4.57,13.71-15.82l71.21,11.2c.58,3.07,1.56,6.96,3.18,10.96,5.45,13.41,15.42,21.48,28.07,22.71,7.88,.76,15.04,1.15,21.28,1.15,4.84,0,7.45-.24,7.92-.29l.6-.06,.6-.11c1.98-.38,14.62-3.45,20-20.45l24.16,4.26c.52,.09,1.04,.14,1.56,.14,.17,0,.33,0,.5-.01l29.61-1.63c7.66,10.65,19.43,12.34,29.67,12.34,3.2,0,6.91-.17,11.68-.52,13.52-1.01,20.93-7.08,24.76-12,.92-1.19,1.7-2.39,2.38-3.6l62.82-3.46c4.36-.24,7.92-3.57,8.44-7.91,.21-1.77,5.19-43.91,1.87-96.1Z"/>
      <path class="cls-2" d="M386.3,237.13c-1.92,4.58-6.42,9.25-16.71,10.02-4,.29-7.53,.48-10.64,.48-9.94,0-15.73-1.87-19.27-7.93l46.62-2.57Z"/>
      <path class="cls-2" d="M108.49,210.42c-.77,11.49-6.67,13.78-6.67,13.78,0,0-18.26,0-27.99-.18-9.74-.17-11.65-21.73-11.65-21.73v-.03c-.18-.85-4.11-20.01-.87-29.53,3.3-9.74,13.73-9.22,16.34-2.44,2.61,6.79,7.13,27.3,6.78,36.34l24.06,3.79Z"/>
      <path class="cls-2" d="M261.57,235.29c-1.82,16.24-10.74,17.94-10.74,17.94,0,0-2.13,.22-6.5,.22s-10.97-.22-19.93-1.09c-17.91-1.74-19.47-26.77-19.47-26.77,0,0-2.61-25.56,0-37.56,2.61-12,9.74-13.74,16.17-12.87,6.43,.87,14.78,4.18,18.08,21.04,3.31,16.87,4.79,35.99,4.79,35.99l17.6,3.1Z"/>
      <path class="cls-2" d="M143.59,66.64l-2.3,53.29c-.18,4.28,3.32,7.81,7.6,7.66l28.11-1c4.59-.16,8.28-3.81,8.5-8.4l2.73-57.65c.19-4.03-3.35-7.24-7.34-6.65l-29.77,4.4c-4.18,.62-7.34,4.12-7.52,8.34Z"/>
      <path class="cls-2" d="M190.68,59.64l-2.67,57.29c-.25,5.43,4.18,9.92,9.61,9.75l35.57-1.14c4.93-.16,8.88-4.13,9.02-9.06l1.76-63.89c.13-4.79-4.13-8.51-8.86-7.73l-36.63,6.02c-4.34,.71-7.6,4.37-7.8,8.76Z"/>
      <path class="cls-2" d="M56.9,79.47l-1.89,43.23c-.17,3.81,2.97,6.94,6.77,6.77l36.13-1.61c3.38-.15,6.08-2.88,6.2-6.26l1.66-48.47c.12-3.36-2.85-5.99-6.17-5.49l-37.19,5.69c-3.06,.47-5.37,3.04-5.5,6.13Z"/>
      <path class="cls-2" d="M18.36,84.7l-1.94,40.46c-.13,2.63,2.02,4.8,4.65,4.71l7.14-.25c2.38-.08,4.28-2,4.34-4.38l1.09-42.51c.06-2.2-1.91-3.9-4.08-3.53l-7.47,1.28c-2.08,.36-3.63,2.11-3.73,4.22Z"/>
      <path class="cls-2" d="M393.16,137.47c.09-7.91-.21-15.82-.39-23.71-.15-6.46-.56-12.91-1.36-19.32-.7-5.62-1.53-11.26-3.09-16.69-.9-3.12-1.89-6.23-2.66-9.39-.82-3.37-3.75-5.8-7.21-6.02l-62.03-3.97c-4.46-.29-8.26,3.2-8.37,7.66l-1.53,63.4c-.28,11.54,7.82,21.53,19.13,23.81,16.73,3.36,39.41,4.03,60.41,3.65,3.42-.06,6.24-2.71,6.51-6.11,.35-4.42,.54-8.85,.59-13.29Z"/>
      <path class="cls-2" d="M455.43,140.47l-6.64-68.19c-.31-3.16-2.86-5.63-6.03-5.83l-49.95-3.2c-1.86-.12-3.29,1.6-2.86,3.41,1.03,4.37,2.61,8.64,3.64,13,1.53,6.43,2.4,13.22,3,19.8,.61,6.75,.76,13.55,.91,20.32,.25,11.11,.39,22.18-.55,33.23-.16,1.91,1.36,3.53,3.27,3.45,24.23-.95,43.32-2.91,43.32-2.91,7.05,0,12.56-6.08,11.88-13.09Z"/>
      <path class="cls-2" d="M114.34,140.04v-53.41c0-1.47,1.09-2.72,2.56-2.91l3.57-.46c1.75-.23,3.31,1.14,3.31,2.91v53.64c0,1.55-1.2,2.83-2.74,2.93l-3.57,.23c-1.69,.11-3.12-1.23-3.12-2.93Z"/>
      <path class="cls-2" d="M313.13,18.2c18.96-.63,82.86-1.67,123.96,10.83,4.01,1.22,7,4.57,7.78,8.69l2.79,14.86c.56,3.01-1.86,5.74-4.91,5.55l-132.59-8.52c-2.6-.17-4.57-2.42-4.38-5.02l1.49-20.73c.22-3.11,2.75-5.56,5.87-5.66Z"/>
      <path class="cls-2" d="M128.21,85.23v54.36c0,1.87,1.51,3.38,3.38,3.38h4.06l2.48-62.1-7.02,1.02c-1.66,.24-2.89,1.66-2.89,3.34Z"/>
      <path class="cls-2" d="M39.75,94.68v45.3c0,1.14,.92,2.06,2.06,2.06h1.36c1.14,0,2.06-.92,2.06-2.06v-45.38c0-1.19-1-2.13-2.19-2.06l-1.36,.09c-1.09,.07-1.93,.97-1.93,2.06Z"/>
      <path class="cls-2" d="M53.05,91.09l-3.25,.49c-1.13,.17-1.97,1.14-1.97,2.28v46.02c0,1.19,.96,2.15,2.15,2.15h.76l2.3-50.95Z"/>
      <path class="cls-3" d="M112.6,79.15V207.5h-2.96s-3.13-35.3-3.13-61.73,3.34-65.72,3.84-70.5l28.93-3.78-.52,5.09-26.17,2.58Z"/>
      <path class="cls-3" d="M53.05,88.48l-14.34,.78-.35,106.59h-2.02c-5.15-34.25,0-109.17,0-109.17l16.71-2.12v3.93Z"/>
      <path class="cls-3" d="M253.09,61.1l.52,168.48h-2.96s-6.26-27.04-4.96-87.55,4.43-86.33,4.43-86.33l43.53-4.18-.15,4.79-40.43,4.78Z"/>
      <path class="cls-3" d="M304.21,169.96c7.13,1.15,28.48,6.96,44.29,36.18,.65,1.2-.27,2.66-1.62,2.56-9.36-.63-37.71-5.16-44.63-36.65-.26-1.2,.75-2.29,1.96-2.1Z"/>
      <path class="cls-3" d="M434.94,202.97c2.18-5.28,8.12-17.5,21.49-33.16,1.01-1.19,2.95-.53,3.05,1.02,.55,8.93-.57,29.99-22.56,34.47-1.36,.28-2.51-1.06-1.97-2.34Z"/>
      <path class="cls-2" d="M339.35,169.57l102.56-1.62c2.32-.04,3.54,2.59,1.92,4.16l-9.81,9.59c-2.46,2.41-5.83,3.81-9.37,3.9l-64.47,1.68c-3.27,.09-6.46-.95-8.98-2.9l-13.47-10.46c-1.87-1.45-.81-4.32,1.62-4.35Z"/>
      <g>
        <path class="cls-2" d="M383.44,199.14c0,2.05,.55,3.97,1.51,5.63l-25.29,.91c-2.26,.08-4.4-1.01-5.66-2.89l-2.81-4.19c-1.12-1.67,.06-3.92,2.07-3.95l31.35-.52c-.75,1.51-1.17,3.21-1.17,5.01Z"/>
        <path class="cls-2" d="M432.54,197.26l-1.91,3.02c-1.15,1.83-3.13,2.97-5.29,3.04l-20.38,.73c.71-1.49,1.11-3.15,1.11-4.91,0-1.93-.48-3.75-1.34-5.34l25.62-.43c2.02-.04,3.27,2.19,2.19,3.89Z"/>
      </g>
      <path class="cls-2" d="M361.08,213.21l64.72-2.41c2.03-.08,3.35,2.12,2.33,3.88l-3.1,5.33c-2.37,4.06-6.63,6.65-11.33,6.87l-39.56,1.85c-5.33,.25-10.33-2.58-12.85-7.28l-2.38-4.44c-.9-1.68,.27-3.73,2.18-3.81Z"/>
      <path class="cls-3" d="M292.05,40.19s19.77-3.52,21.2,12c0,0,.13,5.61-.78,8.48h0c2.13,.46,3.65,2.34,3.65,4.52v27.9c0,2.55-2.07,4.62-4.62,4.62h-8.3c-2.58,0-4.65-2.11-4.62-4.68l.39-28.32c.04-2.53,2.09-4.56,4.62-4.56h1.44s2.74-14.87-14.21-11.61v-8.22l1.23-.13Z"/>
      <circle class="cls-2" cx="320.22" cy="186.92" r="8.37"/>
      <circle class="cls-2" cx="334.52" cy="199.14" r="5.93"/>
      <circle class="cls-2" cx="453.41" cy="184.82" r="6.61"/>
      <circle class="cls-2" cx="445.58" cy="197.2" r="4.9"/>
      <ellipse class="cls-3" cx="73.7" cy="200.07" rx="6.39" ry="15.91"/>
      <ellipse class="cls-3" cx="227.26" cy="219.41" rx="10.18" ry="21.65"/>
      <path class="cls-2" d="M264.69,66.07l-4.3,.38c-2.33,.21-4.12,2.16-4.12,4.5v67.51c0,2.49,2.02,4.51,4.51,4.51h4.3c2.49,0,4.51-2.02,4.51-4.51V70.57c0-2.65-2.27-4.73-4.91-4.5Z"/>
      <path class="cls-2" d="M284.24,62.54l-5.25,.5c-2.17,.21-3.82,2.02-3.82,4.2v70.84c0,2.33,1.89,4.22,4.22,4.22h4.15c2.3,0,4.18-1.85,4.22-4.15l1.09-71.35c.04-2.51-2.11-4.49-4.61-4.26Z"/>
      <path class="cls-2" d="M283.78,146.99l-4.43,.16c-2.55,.09-4.56,2.2-4.54,4.75l.46,69.54c.02,2.55,2.06,4.63,4.61,4.69l4.54,.11c2.7,.06,4.9-2.15,4.83-4.85l-1.98-71.13c-.05-1.87-1.62-3.33-3.48-3.26Z"/>
      <path class="cls-2" d="M264.73,146.99h-3.63c-2.67,0-4.85,2.16-4.86,4.84l-.34,66.06c-.01,2.49,1.86,4.59,4.34,4.86l3.98,.43c2.87,.31,5.38-1.94,5.38-4.83v-66.49c0-2.68-2.18-4.86-4.86-4.86Z"/>
      <g>
        <path class="cls-3" d="M336.21,39.86c-.1-.67-.14-1.18-.12-1.51l.13-6.81c.04-.94,.14-2.35,.3-4.23,.04-.52,.11-.88,.2-1.09,.09-.21,.25-.34,.47-.41,.22-.06,.59-.08,1.1-.06l6.47,.27,6.23,.26,.62,.03c.35,.04,.57,.1,.66,.18,.09,.09,.14,.31,.14,.67l-.12,6.72-.21,5.74c-.1,1.36-.4,2.44-.91,3.26-.8,1.22-1.88,2.06-3.24,2.5-1.53,.56-3.14,.81-4.81,.74-2.4-.1-4.35-1.19-5.85-3.26-.55-.8-.9-1.8-1.05-3Z"/>
        <path class="cls-3" d="M355.42,46.63l-.93-.1c-.37-.04-.62-.27-.75-.69-.03-.25-.04-.42-.04-.5,.03-1.74,.11-4.47,.25-8.19l.39-6.49c.08-.83,.17-1.67,.29-2.5,0-.21,.07-.44,.18-.68,.19-.5,.54-.74,1.06-.74h2.7s2.92-.02,2.92-.02c.83,0,1.46,0,1.89,.02,1.03,.04,2.56,.17,4.58,.38,.23,0,.65,.1,1.26,.27,.51,.11,.79,.44,.83,1.01v.79s-.16,2.32-.16,2.32c-.02,.42-.07,.79-.17,1.12-.08,.5-.38,.75-.9,.75-.33,0-.76,.04-1.28,.1l-.81,.03c-.31,.05-.53,.14-.65,.26-.12,.12-.19,.34-.2,.65l-.04,2.54v.31c-.03,.31-.05,.54-.07,.69-.08,.33-.18,.56-.32,.68-.14,.12-.38,.18-.71,.19-1.14,.02-2.26,0-3.35-.04-.5-.02-.82,0-.98,.04-.16,.04-.26,.16-.31,.33-.05,.18-.07,.54-.08,1.08l-.14,4.86c0,.73-.13,1.21-.37,1.43s-.72,.33-1.44,.32c-.45-.02-.9-.05-1.33-.09-.43-.04-.88-.08-1.33-.12Z"/>
        <path class="cls-3" d="M372.11,47.47c-.49-.04-.8-.13-.9-.26-.11-.13-.16-.45-.16-.95l.05-1.88,.44-7.49,.38-8.5,.02-.5c.03-.21,.09-.36,.19-.45,.1-.09,.25-.14,.46-.15l.96,.04,5.36,.16c.97,.04,2.19,.23,3.67,.56,1.33,.35,2.42,1.03,3.27,2.05,.79,1.02,1.15,2.17,1.1,3.47-.06,1.46-.44,2.69-1.13,3.69-.69,1-1.7,1.73-3.02,2.2-.61,.21-1.22,.38-1.82,.52l-.82,.22c.22,.24,.42,.49,.62,.75l3.56,3.92,1.57,1.76c.24,.22,.45,.48,.62,.78,.1,.17,.14,.31,.14,.41,0,.19-.17,.28-.48,.26l-5.67-.17-6.54-.3c-.83-.03-1.44-.08-1.86-.14Z"/>
        <path class="cls-3" d="M389.46,48.2c-.49-.04-.8-.13-.91-.26-.11-.13-.16-.45-.16-.95l.05-1.88,.44-7.49,.38-8.5,.02-.5c.03-.21,.09-.36,.19-.45,.1-.09,.25-.14,.46-.15l.96,.04,5.36,.16c.97,.04,2.19,.23,3.67,.56,1.33,.35,2.42,1.03,3.27,2.05,.79,1.02,1.15,2.17,1.1,3.47-.06,1.46-.44,2.69-1.13,3.69-.69,1-1.7,1.73-3.02,2.2-.61,.21-1.22,.38-1.82,.52l-.82,.22c.22,.24,.42,.49,.62,.75l3.56,3.92,1.57,1.76c.24,.22,.45,.48,.62,.78,.1,.17,.14,.31,.14,.42,0,.19-.17,.28-.48,.26l-5.67-.17-6.54-.3c-.83-.03-1.44-.08-1.86-.14Z"/>
        <path class="cls-3" d="M405.87,46.96c-.8-.6-1.29-1.47-1.47-2.61-.15-.8-.21-1.58-.18-2.33,.03-.67,.13-1.29,.29-1.87,.1-.33,.19-.54,.27-.62,.09-.08,.29-.12,.63-.13l5.67,.24c.52,0,.86-.02,1.04-.07,.18-.04,.3-.16,.35-.33,.06-.18,.1-.54,.12-1.08l.35-7.78c.02-.54,.06-.91,.11-1.1,.05-.19,.16-.31,.34-.36,.18-.06,.52-.08,1.01-.08,1.12-.02,2.23,0,3.35,.04l1.92,.11c.41,.02,.69,.11,.83,.27,.14,.16,.21,.48,.21,.94l-.08,6.41-.18,5.93c-.06,1.02-.26,1.95-.58,2.77-.32,.82-.84,1.55-1.55,2.17-.43,.38-.91,.67-1.43,.87-.53,.2-1.15,.37-1.88,.5-.79,.13-1.56,.19-2.3,.16-.62-.03-1.4-.13-2.35-.32l-1.41-.31c-1.05-.19-2.07-.66-3.08-1.42Z"/>
      </g>
    </g>
  </g>
</svg>