<?xml version="1.0" encoding="UTF-8"?>
<svg id="Camada_2" data-name="Camada 2" xmlns="http://www.w3.org/2000/svg" viewBox="0 0 278.06 232.53">
  <defs>
    <style>
      .cls-1 {
        fill: #fff;
      }

      .cls-2 {
        fill: #f0782c;
      }
    </style>
  </defs>
  <g id="Camada_1-2" data-name="Camada 1">
    <g>
      <g>
        <path class="cls-2" d="M148.72,224.3c-4,0-6.9-2.38-7.97-3.4-5.8-5.58-11.65-11.28-17.31-16.8l-2.56-2.5c-1.6-1.56-3.23-3.15-4.86-4.77-2.46,1.02-4.92,1.53-7.35,1.53-2.93,0-5.78-.73-8.47-2.18-1.5-.8-2.83-1.91-3.82-3.18-3.89-4.98-8.48-10.88-13.05-16.83-3.85-5.01-8.33-10.85-12.69-16.65-3.09-4.11-6.16-8.31-9.13-12.37l-5.77-7.89c-5.45-7.44-11.08-15.14-16.59-22.75-3.26-4.5-6.51-9.1-9.66-13.55-1.44-2.03-2.88-4.07-4.32-6.1l-2.7-3.81c-3.11-4.38-6.23-8.77-9.36-13.14-.08-.08-.16-.17-.24-.25-.39-.4-.92-.96-1.47-1.68-2.63-3.47-3.64-7.65-2.99-12.43,1.76-12.92,7.53-23.72,17.13-32.08,8.39-7.31,17.86-11.13,28.13-11.38h.19s.19,0,.19,0c7.2,.15,13.96,2.19,20.12,6.07,2.42-1.09,4.83-2.19,7.24-3.29,4.87-2.21,9.75-4.42,14.63-6.61,1.5-.67,2.76-1.84,4.23-3.92,2.75-3.9,7.02-6.13,11.73-6.13,3.3,0,6.61,1.15,9.33,3.23,3.55,2.72,7.23,5.45,10.79,8.09,2.82,2.09,5.63,4.17,8.43,6.29,4.45,3.36,8.87,6.8,13.15,10.23,5.77,4.62,11.58,9.37,17.19,13.96l.5,.41c2.35,1.92,4.69,3.86,7.02,5.8,4.45,3.69,9.05,7.51,13.63,11.11,4.48,3.52,9.22,6.83,14.51,10.47,.66,.46,1.32,.64,2.28,.64,1.45,0,3.23-.46,4.44-.81,1.53-.44,3.06-.66,4.55-.66,3.6,0,6.96,1.25,9.99,3.71,2.39,1.95,4.88,3.91,7.29,5.8,2.9,2.28,5.89,4.64,8.82,7.05,3.96,3.25,7.89,6.61,11.7,9.86,1.81,1.54,3.61,3.08,5.42,4.62,.6,.5,1.18,.99,1.71,1.38,6.41,4.65,8.4,10.36,6.28,17.97-.22,.77-.41,1.56-.61,2.34-.62,2.51-1.33,5.35-2.68,8.17-1.65,3.45-4.34,5.98-6.73,8.07-6.13,5.37-11.89,10.26-17.62,14.95-5.8,4.75-11.73,9.37-17.26,13.64-4.27,3.3-8.91,6.77-14.59,10.93-3.21,2.34-6.6,3.53-10.1,3.53-2.38,0-4.79-.55-7.16-1.65-.6-.28-1.18-.41-1.82-.41-1.29,0-2.96,.54-4.95,1.6-4.51,2.4-8.51,5.93-12.59,11.08-3.78,4.79-6.12,9.42-7.15,14.16-1.2,5.54-5.23,9.24-10.78,9.89-.43,.05-.86,.11-1.29,.17-1.46,.2-3.12,.43-4.96,.43h-.01Z"/>
        <path class="cls-1" d="M112.01,16.46c1.48,0,3,.52,4.33,1.54,6.36,4.88,12.87,9.57,19.26,14.41,4.37,3.3,8.7,6.66,12.97,10.09,5.91,4.73,11.76,9.52,17.62,14.32,6.93,5.67,13.74,11.48,20.77,17.01,4.82,3.79,9.87,7.3,14.92,10.78,2.23,1.54,4.57,2.1,6.95,2.1,2.21,0,4.47-.49,6.7-1.13,.8-.23,1.56-.34,2.28-.34,1.73,0,3.28,.64,4.8,1.87,5.32,4.32,10.78,8.47,16.07,12.82,5.74,4.72,11.36,9.6,17.03,14.4,.71,.6,1.43,1.21,2.19,1.75,3.62,2.63,4.39,4.77,3.18,9.09-.86,3.09-1.42,6.33-2.79,9.18-1,2.09-2.93,3.86-4.73,5.44-5.72,5.02-11.52,9.95-17.41,14.78-5.61,4.6-11.34,9.06-17.08,13.5-4.75,3.67-9.57,7.25-14.42,10.8-1.69,1.23-3.38,1.95-5.24,1.95-1.17,0-2.39-.28-3.72-.89-1.76-.81-3.52-1.16-5.26-1.16-3,0-5.96,1.04-8.83,2.57-6.09,3.25-10.93,7.88-15.17,13.24-4.14,5.24-7.32,10.95-8.74,17.53-.44,2.06-1.61,3.21-3.69,3.45-1.77,.21-3.54,.54-5.3,.54h0c-.76,0-1.68-.54-2.26-1.1-6.16-5.92-12.27-11.89-18.39-17.86-2.86-2.79-5.75-5.57-8.54-8.44-.8-.82-1.53-1.32-2.4-1.32-.53,0-1.1,.19-1.77,.6-2.15,1.32-4.38,2.19-6.68,2.19-1.49,0-3.02-.36-4.58-1.2-.46-.25-.91-.59-1.23-1-4.35-5.58-8.7-11.17-13.01-16.78-4.23-5.51-8.46-11.02-12.63-16.58-3.58-4.77-7.09-9.59-10.61-14.41-6.94-9.49-13.9-18.97-20.79-28.49-4.7-6.49-9.3-13.06-13.94-19.59-4.05-5.7-8.09-11.4-12.16-17.09-.51-.72-1.23-1.29-1.77-2-1.44-1.89-1.7-4.02-1.38-6.34,1.47-10.78,6.21-19.87,14.38-26.99,6.51-5.67,14.09-9.15,22.93-9.36,6.29,.13,12,2.07,17.14,5.62,.94,.65,1.86,.98,2.8,.98,.64,0,1.29-.15,1.96-.45,7.88-3.55,15.73-7.16,23.62-10.67,3.25-1.45,5.58-3.83,7.6-6.69,1.26-1.78,3.1-2.65,5-2.65m0-16.46c-7.41,0-14.14,3.51-18.45,9.62-.54,.77-.86,1.09-.98,1.2-4.85,2.17-9.75,4.39-14.48,6.54-1.17,.53-2.34,1.06-3.51,1.59-6.34-3.22-13.16-4.92-20.35-5.07h-.37s-.37,0-.37,0c-12.25,.29-23.47,4.8-33.34,13.4C9,36.99,2.31,49.5,.27,64.45c-1.19,8.75,1.84,14.9,4.59,18.52,.74,.97,1.44,1.72,1.92,2.22,3,4.19,5.97,8.38,8.95,12.57l2.75,3.87c1.44,2.02,2.87,4.05,4.31,6.08,3.16,4.47,6.43,9.08,9.72,13.63,5.55,7.67,11.22,15.41,16.7,22.9l4.14,5.65,1.47,2.02c3.01,4.11,6.12,8.37,9.26,12.56,4.32,5.76,8.66,11.42,12.74,16.72,4.6,5.98,9.19,11.89,13.08,16.87,1.7,2.17,3.91,4.03,6.42,5.37,3.9,2.1,8.07,3.16,12.37,3.16,1.68,0,3.37-.17,5.04-.49,.47,.46,.94,.91,1.4,1.36l1.46,1.42,1.11,1.09c5.67,5.53,11.53,11.25,17.37,16.86,3.76,3.62,8.74,5.69,13.67,5.69,2.41,0,4.45-.28,6.08-.5,.38-.05,.76-.11,1.14-.15,9.07-1.07,15.91-7.32,17.86-16.32,.76-3.54,2.53-6.97,5.56-10.8,3.35-4.23,6.53-7.07,10-8.92,.33-.17,.6-.3,.81-.4,3.03,1.21,6.14,1.82,9.25,1.82,5.28,0,10.31-1.72,14.96-5.12,5.74-4.2,10.43-7.71,14.77-11.06,5.59-4.32,11.57-8.98,17.45-13.79,5.79-4.75,11.62-9.69,17.83-15.13,2.17-1.9,6.21-5.44,8.73-10.7,1.71-3.58,2.56-6.99,3.25-9.74,.19-.77,.37-1.5,.55-2.12,3.05-10.91-.19-20.19-9.37-26.85-.31-.22-.79-.63-1.22-.99-1.81-1.53-3.61-3.07-5.41-4.6-3.83-3.27-7.79-6.65-11.8-9.95-3-2.46-6.02-4.85-8.95-7.15-2.49-1.96-4.85-3.82-7.19-5.72-5.65-4.59-11.37-5.55-15.18-5.55-2.26,0-4.55,.33-6.81,.98-.5,.14-.89,.24-1.21,.32-4.6-3.18-8.77-6.12-12.66-9.18-4.49-3.53-8.84-7.14-13.45-10.97-2.35-1.95-4.71-3.91-7.08-5.85l-.67-.55c-5.57-4.56-11.33-9.28-17.08-13.88-4.34-3.47-8.82-6.96-13.33-10.37-2.84-2.14-5.71-4.27-8.49-6.33-3.53-2.62-7.19-5.33-10.69-8.01-4.15-3.18-9.24-4.93-14.34-4.93h0Z"/>
      </g>
      <g>
        <g>
          <path class="cls-1" d="M118.86,184.06c-1.59,.18-1.87-.78-1.62-1.81,.92-3.79,1.64-7.68,3.02-11.3,2.53-6.67,6.85-12.27,11.83-17.29,3.99-4.02,8.31-7.72,13.57-10.04,4.14-1.83,8.44-3.15,13.01-3.26,2.81-.06,5.62,.02,8.43,0,1.99-.01,3.01-1.01,3.13-3.04,.11-1.84-.93-2.43-2.61-2.64-3.51-.43-7-1.35-10.52-1.47-4.73-.16-9.27,1.19-13.6,3.05-9.21,3.96-16.67,10.24-22.81,18.05-4.17,5.3-7.54,11.14-9.87,17.52-.88,2.42-1.72,4.87-2.72,7.24-.29,.7-1.08,1.19-1.65,1.77-.29-.72-.88-1.48-.81-2.17,.52-5.23,2.09-10.2,4.23-14.98,3.48-7.76,8.63-14.33,14.8-20.09,7.9-7.37,16.9-12.81,27.74-14.57,2.62-.43,5.33-.27,7.99-.37,.61-.02,1.22,0,2.39,0-1.16-1.34-1.97-2.41-2.92-3.33-8.3-8.01-16.69-15.95-24.94-24.01-12.02-11.74-24.04-23.47-35.88-35.39-6.8-6.85-13.26-14.06-19.83-21.13-.59-.63-.93-1.49-1.39-2.24,.16-.2,.32-.4,.49-.6,.75,.35,1.64,.55,2.22,1.08,2.77,2.52,5.46,5.12,8.17,7.7,7.18,6.86,14.35,13.72,21.51,20.6,5.88,5.65,11.74,11.31,17.59,16.99,11.87,11.5,23.75,22.97,35.57,34.52,3.46,3.38,6.83,6.88,10.01,10.52,1.96,2.24,1.6,5.02,.46,7.58-1.13,2.55-3.28,3.84-6.05,3.92-2.67,.07-5.34-.06-8-.01-8.64,.16-15.76,3.87-22.08,9.48-6.88,6.11-11.95,13.51-15.82,21.78-1.18,2.53-2.02,5.21-3.05,7.93Z"/>
          <path class="cls-1" d="M118.5,184.71c-.67,0-1.19-.2-1.54-.6-.42-.48-.54-1.17-.33-2.02,.22-.89,.42-1.79,.63-2.7,.66-2.89,1.34-5.87,2.41-8.68,2.29-6.02,6.09-11.58,11.98-17.51,3.37-3.4,7.98-7.62,13.76-10.17,4.9-2.16,9.11-3.21,13.25-3.31,1.67-.04,3.36-.02,5,0,1.15,0,2.29,.02,3.44,.01,1.65,0,2.4-.74,2.5-2.44,.08-1.28-.44-1.78-2.05-1.97-1.35-.17-2.7-.4-4.01-.63-2.12-.37-4.31-.76-6.45-.83-4-.13-8.24,.81-13.32,3-8.54,3.67-16.13,9.68-22.56,17.86-4.26,5.42-7.55,11.26-9.77,17.34l-.62,1.73c-.66,1.83-1.34,3.72-2.11,5.54-.26,.61-.76,1.05-1.24,1.47-.19,.16-.37,.32-.54,.49l-.68,.71-.36-.92c-.08-.21-.19-.42-.3-.63-.29-.55-.61-1.17-.54-1.83,.48-4.86,1.88-9.82,4.28-15.17,3.29-7.35,8.18-13.99,14.95-20.3,8.88-8.29,18.06-13.11,28.07-14.74,1.86-.3,3.78-.32,5.63-.33,.81,0,1.63-.01,2.44-.04,.32-.01,.64-.01,1.04-.01-.06-.07-.12-.14-.18-.21-.64-.77-1.2-1.43-1.8-2.02-3.21-3.1-6.43-6.18-9.65-9.27-5.03-4.82-10.22-9.79-15.29-14.74l-1.12-1.1c-11.45-11.19-23.29-22.75-34.76-34.3-5.01-5.05-9.91-10.37-14.65-15.51-1.73-1.88-3.46-3.76-5.2-5.63-.46-.49-.77-1.07-1.07-1.63-.13-.24-.26-.48-.4-.71l-.23-.38,1.08-1.33,.45,.21c.22,.1,.46,.19,.69,.28,.59,.22,1.19,.46,1.68,.9,2.38,2.17,4.74,4.42,7.02,6.61l2.38,2.28c6.77,6.47,13.54,12.95,20.29,19.44,5.88,5.65,11.74,11.31,17.59,16.99l7.67,7.43c9.16,8.87,18.63,18.03,27.9,27.09,3.8,3.71,7.08,7.17,10.05,10.56,1.86,2.13,2.05,4.91,.56,8.25-1.19,2.68-3.54,4.21-6.61,4.29-1.42,.04-2.86,.02-4.25,0-1.25-.02-2.5-.03-3.75-.01-7.68,.14-14.77,3.19-21.67,9.32-6.42,5.7-11.54,12.76-15.67,21.58-.79,1.7-1.42,3.45-2.09,5.31-.31,.85-.61,1.71-.94,2.58l-.14,.36-.38,.04c-.15,.02-.3,.03-.44,.03Zm42.5-43.75c-.77,0-1.55,0-2.31,.02-3.97,.09-8.03,1.11-12.77,3.2-5.59,2.47-10.09,6.59-13.38,9.91-5.75,5.8-9.47,11.22-11.69,17.07-1.04,2.73-1.71,5.67-2.36,8.52-.21,.91-.41,1.81-.63,2.71-.1,.4-.08,.73,.05,.88,.09,.1,.27,.16,.51,.17,.27-.73,.53-1.45,.79-2.17,.68-1.88,1.31-3.66,2.13-5.41,4.2-8.98,9.42-16.17,15.97-21.99,7.14-6.34,14.49-9.49,22.49-9.64,1.27-.03,2.53,0,3.8,.01,1.38,.02,2.81,.04,4.2,0,2.59-.07,4.49-1.29,5.49-3.54,1.27-2.85,1.15-5.18-.36-6.9-2.94-3.37-6.21-6.8-9.98-10.49-9.27-9.06-18.74-18.23-27.89-27.09l-7.67-7.43c-5.85-5.67-11.71-11.34-17.59-16.98-6.75-6.49-13.52-12.96-20.29-19.43l-2.38-2.28c-2.28-2.18-4.63-4.43-7-6.59-.31-.28-.78-.46-1.28-.66l-.13-.05c.03,.06,.07,.13,.1,.19,.28,.51,.54,1,.88,1.37,1.74,1.87,3.47,3.76,5.21,5.64,4.73,5.14,9.62,10.45,14.61,15.48,11.46,11.54,23.3,23.11,34.75,34.29l1.12,1.1c5.06,4.94,10.26,9.92,15.28,14.73,3.22,3.09,6.45,6.17,9.66,9.27,.66,.63,1.23,1.32,1.9,2.12,.33,.39,.67,.8,1.06,1.25l.91,1.05h-2.45c-.53,0-.92-.01-1.31,0-.82,.03-1.65,.04-2.48,.04-1.8,.01-3.67,.03-5.44,.32-9.75,1.59-18.72,6.3-27.41,14.41-6.64,6.19-11.43,12.7-14.66,19.89-2.34,5.23-3.71,10.06-4.18,14.78-.03,.27,.17,.67,.38,1.06,.38-.33,.72-.64,.86-.97,.76-1.79,1.43-3.67,2.08-5.48l.63-1.73c2.27-6.21,5.62-12.16,9.97-17.69,6.56-8.35,14.32-14.49,23.06-18.24,5.27-2.26,9.67-3.26,13.87-3.1,2.23,.08,4.46,.47,6.63,.85,1.29,.23,2.63,.46,3.95,.62,1.43,.18,3.32,.71,3.16,3.31-.15,2.36-1.45,3.62-3.76,3.63-1.15,.01-2.3,0-3.46-.01-.87,0-1.76-.02-2.64-.02Z"/>
        </g>
        <g>
          <path class="cls-1" d="M108.68,27.16c.81,.3,1.77,.41,2.42,.92,6.65,5.23,13.26,10.52,19.87,15.8,6.12,4.89,12.27,9.73,18.32,14.71,8.26,6.78,16.43,13.67,24.64,20.5,4.86,4.05,9.74,8.07,14.58,12.13,3.04,2.55,5.99,5.19,9.05,7.71,2.97,2.45,6.53,2.4,10.06,2,1.98-.23,3.96-.68,5.84-1.33,.74-.25,1.41-1.22,1.75-2.02,.6-1.38,.82-2.92,1.41-4.3,.26-.61,1.04-.99,1.59-1.48,.22,.12,.44,.24,.67,.35,0,1.24,.13,2.5-.02,3.72-.71,5.85-1.2,3.99,3.26,7.49,5.92,4.64,11.67,9.51,17.42,14.37,2.41,2.04,4.67,4.26,6.97,6.43,.43,.41,.72,.97,1.07,1.46-.11,.13-.21,.26-.32,.39-.42-.13-.89-.17-1.25-.4-2.42-1.58-4.87-3.13-7.22-4.82-5.21-3.73-10.37-7.53-15.54-11.31-2.12-1.55-4.24-3.1-6.31-4.71-1.37-1.06-2.79-.72-4.2-.29-8.22,2.49-15.31,.92-21.63-5.13-4.65-4.46-9.81-8.39-14.74-12.56-7.66-6.46-15.31-12.93-22.98-19.38-4.57-3.84-9.18-7.63-13.72-11.5-6.74-5.75-13.46-11.52-20.16-17.33-3.26-2.83-6.48-5.72-9.67-8.63-.65-.59-1.09-1.41-1.62-2.13,.15-.22,.3-.44,.44-.66Z"/>
          <path class="cls-1" d="M247.49,126.74l-.41-.13c-.12-.04-.24-.07-.36-.09-.33-.08-.71-.17-1.04-.38l-1.23-.8c-1.99-1.29-4.05-2.63-6.02-4.04-4.28-3.07-8.6-6.23-12.77-9.28l-2.77-2.03c-2.11-1.54-4.26-3.12-6.33-4.72-1.1-.86-2.25-.61-3.63-.19-8.56,2.6-15.84,.87-22.25-5.28-3.21-3.08-6.74-5.96-10.14-8.75-1.53-1.25-3.06-2.51-4.57-3.78l-4.87-4.11c-6.03-5.09-12.07-10.19-18.11-15.27-1.82-1.53-3.64-3.05-5.46-4.57-2.76-2.3-5.52-4.6-8.26-6.93-6.45-5.5-13.05-11.16-20.16-17.33-2.87-2.49-5.95-5.23-9.68-8.64-.5-.46-.87-1.01-1.23-1.54-.15-.23-.31-.46-.47-.67l-.27-.36,.97-1.44,.47,.17c.24,.09,.5,.16,.76,.23,.64,.18,1.3,.36,1.84,.79,6.3,4.95,12.66,10.04,18.82,14.96l1.06,.84c1.58,1.26,3.16,2.52,4.74,3.78,4.47,3.56,9.1,7.24,13.59,10.93,5.62,4.62,11.3,9.37,16.79,13.95,2.62,2.19,5.23,4.37,7.85,6.55,1.8,1.5,3.61,3,5.42,4.5,3.06,2.54,6.12,5.08,9.17,7.63,1.36,1.14,2.69,2.29,4.03,3.45,1.63,1.41,3.32,2.87,5.01,4.26,2.61,2.15,5.72,2.3,9.59,1.86,1.92-.22,3.84-.66,5.71-1.3,.44-.15,1.02-.85,1.38-1.67,.28-.66,.48-1.35,.68-2.09,.2-.73,.41-1.49,.72-2.21,.25-.58,.77-.96,1.24-1.31,.18-.13,.36-.26,.51-.4l.33-.29,1.39,.74v.38c0,.38,.01,.77,.02,1.16,.03,.86,.06,1.76-.05,2.64-.09,.78-.18,1.42-.26,1.95q-.33,2.35,1.2,3.43c.54,.38,1.22,.85,2.09,1.54,5.48,4.29,10.89,8.85,16.11,13.26l1.32,1.12c1.91,1.61,3.75,3.37,5.53,5.06l1.47,1.39c.35,.33,.6,.72,.85,1.1,.1,.15,.2,.31,.3,.45l.28,.39-.9,1.1Zm-32.61-23.31c.79,0,1.64,.2,2.46,.84,2.05,1.6,4.19,3.16,6.26,4.68l2.81,2.06c4.17,3.05,8.49,6.21,12.76,9.28,1.94,1.39,3.99,2.72,5.97,4l1.23,.8s.09,.05,.15,.07c-.14-.2-.28-.38-.43-.53l-1.47-1.4c-1.77-1.68-3.59-3.42-5.48-5.01l-1.32-1.12c-5.22-4.4-10.62-8.96-16.08-13.24-.85-.66-1.52-1.13-2.03-1.5-2.11-1.49-2.13-1.74-1.72-4.64,.07-.53,.16-1.16,.26-1.93,.1-.79,.07-1.6,.04-2.45,0-.26-.02-.51-.02-.77-.07,.06-.15,.11-.22,.16-.35,.26-.71,.52-.82,.78-.28,.65-.47,1.33-.67,2.05-.21,.75-.42,1.52-.74,2.25-.4,.93-1.17,2.04-2.13,2.36-1.96,.67-3.97,1.13-5.98,1.36-3.62,.41-7.41,.44-10.54-2.14-1.7-1.4-3.39-2.86-5.03-4.28-1.33-1.15-2.67-2.3-4.02-3.44-3.04-2.55-6.1-5.09-9.16-7.63-1.81-1.5-3.62-3-5.42-4.5-2.62-2.18-5.24-4.37-7.85-6.55-5.49-4.59-11.16-9.33-16.78-13.95-4.49-3.68-9.11-7.36-13.57-10.92-1.58-1.26-3.16-2.52-4.74-3.78l-1.06-.84c-6.15-4.92-12.51-10-18.81-14.95-.34-.27-.85-.41-1.39-.56-.07-.02-.14-.04-.2-.06,.05,.07,.09,.14,.14,.21,.33,.49,.65,.96,1.03,1.31,3.72,3.4,6.79,6.13,9.65,8.62,7.11,6.16,13.71,11.83,20.16,17.32,2.73,2.33,5.49,4.63,8.25,6.93,1.83,1.52,3.65,3.04,5.47,4.58,6.04,5.08,12.07,10.18,18.11,15.27l4.87,4.11c1.5,1.27,3.03,2.52,4.55,3.77,3.43,2.8,6.97,5.7,10.22,8.82,6.06,5.8,12.93,7.43,21.01,4.99,.64-.19,1.45-.44,2.32-.44Z"/>
        </g>
        <g>
          <path class="cls-1" d="M249.69,130.96c-.51,.76-.91,1.64-1.55,2.27-1.49,1.47-3.04,2.88-4.65,4.2-9.94,8.17-19.88,16.32-29.85,24.44-4.21,3.42-8.47,6.79-12.81,10.04-.78,.59-2.23,.95-3.11,.66-10.59-3.57-18.92,.88-26.69,7.35-6.85,5.71-11.92,12.81-15.95,20.69-1.56,3.05-2.99,6.17-4.52,9.24-.22,.45-.68,.78-1.03,1.16-.2-.05-.4-.11-.61-.16-.05-.72-.24-1.47-.14-2.17,.84-6.4,3.51-12.12,6.86-17.53,3.98-6.42,8.94-12.03,14.95-16.6,6.13-4.67,12.91-7.94,20.89-7.69,1.72,.05,3.46,.38,5.13,.8,1.44,.36,2.59,.1,3.73-.8,5.6-4.39,11.21-8.78,16.85-13.13,6.84-5.27,13.7-10.54,20.59-15.73,3.23-2.43,6.57-4.72,9.89-7.03,.44-.31,1.08-.33,1.62-.48,.13,.16,.26,.32,.38,.48Z"/>
          <path class="cls-1" d="M149.75,211.72l-1.41-.38-.03-.45c-.02-.22-.05-.44-.07-.66-.07-.53-.14-1.08-.07-1.64,.74-5.68,2.95-11.33,6.95-17.78,4.11-6.63,9.19-12.27,15.1-16.77,7.3-5.56,14.07-8.04,21.29-7.82,1.54,.05,3.21,.31,5.26,.82,1.23,.3,2.19,.1,3.19-.68,5.09-3.99,11-8.62,16.85-13.13,7.61-5.87,14.03-10.79,20.6-15.74,2.87-2.16,5.86-4.24,8.76-6.25l1.15-.8c.41-.29,.9-.38,1.33-.46,.16-.03,.33-.06,.49-.11l.4-.11,.94,1.17-.26,.39c-.15,.23-.3,.47-.44,.71-.34,.57-.7,1.17-1.2,1.66-1.55,1.53-3.13,2.95-4.7,4.24-9.53,7.83-19.75,16.22-29.86,24.44-4.65,3.78-8.85,7.07-12.83,10.05-.88,.66-2.55,1.14-3.69,.75-10.91-3.67-19.31,1.6-26.08,7.24-6.23,5.19-11.39,11.89-15.79,20.49-.88,1.72-1.74,3.5-2.56,5.22-.64,1.34-1.29,2.68-1.95,4.01-.2,.4-.52,.71-.8,.98-.11,.11-.22,.21-.32,.32l-.26,.29Zm40.86-44.24c-6.6,0-12.86,2.42-19.63,7.57-5.79,4.4-10.76,9.93-14.79,16.43-3.9,6.29-6.05,11.78-6.77,17.28-.05,.4,0,.84,.07,1.32,0,.03,0,.06,.01,.08,.21-.21,.41-.4,.5-.59,.66-1.32,1.3-2.66,1.94-3.99,.83-1.73,1.69-3.51,2.58-5.25,4.48-8.75,9.75-15.58,16.11-20.88,7.04-5.87,15.79-11.35,27.29-7.47,.63,.21,1.86-.06,2.52-.57,3.97-2.97,8.15-6.25,12.79-10.02,10.11-8.22,20.32-16.6,29.85-24.43,1.54-1.26,3.09-2.66,4.61-4.16,.38-.38,.68-.88,1-1.41,.03-.04,.05-.08,.08-.13-.29,.06-.55,.12-.72,.23l-1.15,.8c-2.89,2-5.87,4.07-8.72,6.22-6.57,4.95-12.98,9.87-20.59,15.73-5.85,4.5-11.76,9.14-16.84,13.12-1.31,1.02-2.66,1.32-4.27,.92-1.96-.49-3.55-.74-5-.78-.29,0-.57-.01-.85-.01Z"/>
        </g>
      </g>
    </g>
  </g>
</svg>