<?xml version="1.0" encoding="UTF-8"?>
<svg id="Camada_2" data-name="Camada 2" xmlns="http://www.w3.org/2000/svg" viewBox="0 0 1330.31 648.91">
  <defs>
    <style>
      .cls-1 {
        fill: #fff;
      }

      .cls-2 {
        fill: #ffcb2d;
      }
    </style>
  </defs>
  <g id="menu">
    <g id="Camada_2-2" data-name="Camada 2">
      <g id="Camada_1-2" data-name="Camada 1-2">
        <path class="cls-1" d="M430.16,0l37.51,63.46L505.4,0h17.79l-45.66,75.24,45.66,73.09h-18.62l-37.3-61.52-37.97,61.52h-17.79l45.9-72.67L411.5,0h18.65Z"/>
        <path class="cls-1" d="M545.27,148.33V0h16.5V148.33h-16.5Z"/>
        <path class="cls-1" d="M598.01,148.33V0h16.5V148.33h-16.5Z"/>
        <path class="cls-1" d="M650.73,148.33V0h16.51V148.33h-16.51Z"/>
        <path class="cls-1" d="M530.4,261.22c-24.15-3.1-41.04-4.66-50.68-4.66s-15.87,.88-18.69,2.63c-2.82,1.75-4.24,4.52-4.24,8.32s1.9,6.42,5.69,7.86c3.8,1.46,13.54,3.61,29.21,6.43,15.67,2.82,26.82,7.45,33.44,13.88,6.62,6.43,9.93,16.85,9.93,31.26,0,31.55-19.57,47.32-58.71,47.32-12.86,0-28.44-1.75-46.73-5.26l-9.31-1.75,1.17-32.71c24.14,3.1,40.93,4.66,50.38,4.66s15.88-.93,19.29-2.78c3.41-1.84,5.11-4.62,5.12-8.32,0-3.7-1.81-6.42-5.45-8.15-3.61-1.75-12.96-3.89-28.04-6.43-15.09-2.54-26.34-6.82-33.76-12.86-7.4-6.04-11.09-16.79-11.09-32.27s5.26-27.16,15.77-35.05c10.53-7.89,24.07-11.83,40.62-11.83,11.49,0,27.16,1.85,47.02,5.55l9.64,1.76-.58,32.41Z"/>
        <path class="cls-1" d="M602.68,333.8c4.57,3.99,11.14,5.99,19.72,5.99,18.11,0,34.27-.58,48.48-1.75l8.17-.88,.59,28.91c-22.39,5.45-42.64,8.18-60.75,8.18-22,0-37.97-5.84-47.89-17.53-9.92-11.68-14.9-30.67-14.93-56.95,0-52.38,21.51-78.57,64.52-78.57,42.45,0,63.68,22,63.68,66.01l-2.92,27.16h-85.82c.2,8.96,2.58,15.44,7.16,19.42Zm43.08-49.22c0-11.68-1.85-19.81-5.55-24.38-3.7-4.58-10.18-6.86-19.42-6.86s-15.77,2.39-19.57,7.16c-3.8,4.77-5.8,12.8-5.99,24.09h50.53Z"/>
        <path class="cls-1" d="M751.49,370.75h-39.11V224.71h38.85v8.18c13.44-7.79,24.93-11.68,34.47-11.69,15.77,0,27.94,4.58,36.51,13.73,17.91-9.14,34.27-13.72,49.07-13.73,19.28,0,32.66,5.6,40.16,16.8,7.5,11.2,11.25,29.06,11.24,53.6v79.15h-39.14v-77.98c0-12.46-1.36-21.66-4.09-27.6-2.73-5.95-8.18-8.92-16.36-8.91-6.23,0-13.82,1.36-22.78,4.09l-4.38,1.46c.77,14.61,1.16,25.71,1.16,33.3v75.65h-39.14v-75.06c0-14.41-1.27-24.58-3.8-30.52-2.53-5.94-8.07-8.91-16.63-8.91-7.68,.02-15.3,1.4-22.49,4.09l-3.51,1.16-.05,109.24Z"/>
        <path class="cls-1" d="M1069.27,270.27v60.76c.39,4.67,1.16,7.94,2.33,9.78,1.17,1.85,3.61,3.16,7.32,3.94l-1.17,29.5c-9.93,0-17.87-.68-23.8-2.05s-11.92-4.09-17.96-8.17c-14.02,6.81-28.33,10.22-42.94,10.22-30.18,0-45.27-15.96-45.27-47.89,0-15.57,4.19-26.62,12.56-33.14,8.37-6.53,21.23-10.37,38.58-11.54l31.26-2.33v-9.07c0-6.03-1.36-10.17-4.09-12.41-2.73-2.24-7.11-3.36-13.14-3.36l-54.91,2.34-1.17-27.16c20.84-5.65,40.65-8.47,59.44-8.47s32.31,3.9,40.57,11.69c8.26,7.79,12.39,20.25,12.39,37.38Zm-65.72,38.58c-10.91,.98-16.36,6.82-16.36,17.52,0,10.7,4.78,16.06,14.31,16.07,8.2-.11,16.34-1.29,24.24-3.51l4.38-1.17v-31.26l-26.58,2.35Z"/>
        <path class="cls-1" d="M1192.82,224.71h39.14v146.04h-38.85v-8.18c-14.02,7.8-26.19,11.69-36.51,11.69-20.25,0-33.88-5.6-40.89-16.8-7.01-11.2-10.51-29.94-10.51-56.23v-76.49h39.14v77.08c0,14.41,1.17,24.24,3.51,29.5,2.34,5.25,7.98,7.89,16.94,7.91,8.26,.05,16.46-1.33,24.24-4.09l3.8-1.17v-109.26Z"/>
        <path class="cls-1" d="M449.6,495.49h-18.86v24.98h-8.25v-74.14h27.12c8.07,0,14.04,1.96,17.9,5.89,3.86,3.93,5.79,9.93,5.79,18.01,0,16.85-7.9,25.27-23.69,25.27Zm-18.86-7.32h18.76c10.2,0,15.3-6,15.3-18.01,0-5.72-1.22-9.91-3.65-12.59-2.43-2.68-6.32-4.01-11.68-3.99h-18.76l.03,34.59Z"/>
        <path class="cls-1" d="M520.66,513.82l3.11-.33,.21,6.33c-6.92,1.05-13.9,1.62-20.9,1.72-7.72,0-13.18-2.23-16.4-6.7s-4.83-11.41-4.82-20.85c0-18.8,7.47-28.19,22.4-28.19,7.21,0,12.61,2.02,16.18,6.05,3.57,4.04,5.36,10.38,5.36,19.03l-.43,6.11h-35.37c0,5.93,1.07,10.33,3.21,13.18s5.88,4.28,11.2,4.28c5.32,0,10.73-.22,16.24-.65Zm-2.89-23.28c0-6.57-1.05-11.23-3.16-13.97-2.11-2.74-5.54-4.1-10.29-4.07-4.76,0-8.33,1.43-10.72,4.28s-3.62,7.43-3.7,13.72l27.86,.03Z"/>
        <path class="cls-1" d="M546.38,520.46h-8.04v-53.59h7.94v3.75c5.79-3.22,11.33-4.83,16.63-4.82,7.14,0,11.95,1.93,14.41,5.79,2.47,3.86,3.7,10.72,3.7,20.58v28.3h-7.96v-28.08c0-7.43-.73-12.53-2.2-15.3s-4.59-4.15-9.38-4.13c-2.45,.02-4.88,.36-7.24,1.02-2,.5-3.95,1.17-5.84,2l-2.04,.97v43.53Z"/>
        <path class="cls-1" d="M612.73,472.98c-7.79,0-11.68,2.72-11.68,8.15,0,2.5,.89,4.27,2.66,5.32,1.77,1.05,5.85,2.11,12.23,3.2,6.36,1.11,10.86,2.66,13.5,4.66,2.64,2,3.97,5.75,3.99,11.25,0,5.5-1.77,9.54-5.32,12.11-3.55,2.58-8.71,3.86-15.5,3.86-5.25-.07-10.48-.58-15.65-1.5l-3.21-.53,.43-6.97c8.15,1.22,14.3,1.83,18.44,1.82,4.14,0,7.3-.67,9.49-2,2.18-1.33,3.27-3.54,3.27-6.65s-.92-5.21-2.78-6.33-5.93-2.16-12.22-3.16-10.76-2.47-13.4-4.4-3.99-5.5-3.99-10.72,1.84-9.07,5.52-11.57,8.27-3.75,13.78-3.75c5.49,.1,10.97,.6,16.4,1.5l3,.54-.21,6.86c-7.9-1.13-14.14-1.7-18.72-1.7Z"/>
        <path class="cls-1" d="M683.58,483.06v27.44c.21,2.66,2.28,4.23,6.21,4.72l-.32,6.33c-5.65,0-9.9-1.43-12.76-4.29-6.05,2.78-12.63,4.24-19.29,4.29-4.94,0-8.69-1.39-11.25-4.18-2.57-2.78-3.85-6.78-3.86-11.97,0-5.21,1.33-9.05,3.99-11.52s6.8-3.98,12.43-4.56l16.83-1.61v-4.61c0-3.65-.79-6.25-2.36-7.82s-3.72-2.36-6.43-2.36c-5.95,.01-11.89,.37-17.79,1.07l-3.33,.33-.32-6.11c6.87-1.46,13.87-2.25,20.9-2.35,6.08,0,10.49,1.39,13.24,4.18,2.75,2.78,4.12,7.13,4.1,13.04Zm-33.02,21.86c0,6.58,2.72,9.86,8.15,9.86,4.89,0,9.75-.84,14.36-2.47l2.47-.86v-17.69l-15.86,1.5c-3.21,.29-5.54,1.22-6.96,2.79s-2.15,3.86-2.15,6.86Z"/>
        <path class="cls-1" d="M699.44,520.46v-53.59h7.94v7.32c5.89-4.16,12.58-7.05,19.64-8.49v8.14c-3.2,.62-6.33,1.51-9.38,2.66-2.55,.91-5.04,1.98-7.45,3.21l-2.66,1.4v39.34l-8.09,.02Z"/>
        <path class="cls-1" d="M770.4,473.84v46.63h-8.04v-46.63h-6.74v-6.96h6.75v-4.82c0-7.57,1.07-12.74,3.21-15.49,2.14-2.75,5.89-4.13,11.25-4.12l10.83,.75-.11,6.65c-3.99-.15-7.3-.22-9.92-.22s-4.48,.86-5.57,2.57c-1.1,1.72-1.66,5.04-1.66,9.98v4.72h15.54v6.96h-15.55Z"/>
        <path class="cls-1" d="M792.26,493.54c0-9.79,1.75-16.86,5.25-21.22s9.41-6.54,17.74-6.54,14.22,2.18,17.69,6.54c3.46,4.36,5.2,11.43,5.2,21.22,0,9.79-1.64,16.9-4.93,21.33-3.29,4.43-9.29,6.65-18.01,6.65-8.71,0-14.72-2.22-18.01-6.65-3.29-4.43-4.93-11.54-4.93-21.33Zm8.25-.16c0,7.82,.95,13.31,2.84,16.46s5.86,4.72,11.89,4.72c6.04,0,9.99-1.55,11.85-4.66,1.86-3.1,2.79-8.59,2.79-16.46s-1.04-13.27-3.11-16.24-5.91-4.45-11.53-4.45c-5.61,0-9.46,1.48-11.57,4.45s-3.16,8.36-3.16,16.19h0Z"/>
        <path class="cls-1" d="M851.21,520.46v-53.59h7.93v7.32c5.88-4.15,12.56-7.03,19.62-8.47v8.14c-3.2,.62-6.33,1.51-9.38,2.66-2.55,.91-5.04,1.98-7.45,3.21l-2.66,1.4v39.34h-8.06Z"/>
        <path class="cls-1" d="M926.13,483.06v27.44c.22,2.66,2.29,4.23,6.22,4.72l-.32,6.33c-5.64,0-9.9-1.43-12.76-4.29-6.05,2.78-12.63,4.24-19.29,4.29-4.94,0-8.69-1.39-11.26-4.18-2.57-2.78-3.86-6.78-3.86-11.97s1.33-9.05,3.99-11.52,6.8-3.98,12.43-4.56l16.83-1.61v-4.61c0-3.65-.79-6.25-2.36-7.82-1.57-1.57-3.72-2.36-6.43-2.36-5.95,.01-11.89,.37-17.79,1.07l-3.33,.33-.32-6.11c6.87-1.46,13.87-2.25,20.9-2.35,6.07,0,10.49,1.39,13.24,4.18,2.75,2.78,4.12,7.13,4.11,13.04Zm-33.01,21.86c0,6.58,2.72,9.86,8.15,9.86,4.89,0,9.75-.84,14.36-2.47l2.47-.86v-17.69l-15.86,1.5c-3.22,.28-5.54,1.21-6.97,2.79s-2.14,3.86-2.14,6.86Z"/>
        <path class="cls-1" d="M1006.73,443.51v76.96h-7.94v-3.64c-5.5,3.15-10.93,4.72-16.29,4.72-2.54,.05-5.08-.32-7.5-1.07-2.27-.8-4.32-2.12-5.99-3.86-3.86-3.86-5.79-10.99-5.79-21.38s1.73-17.9,5.19-22.51c3.47-4.61,9.2-6.91,17.2-6.91,4.43,.03,8.85,.5,13.18,1.39v-23.69h7.92Zm-27.87,70.1c1.6,.55,3.29,.8,4.99,.74,2.32-.04,4.63-.38,6.86-1.02,2.03-.51,4.02-1.18,5.95-2l2.14-.96v-36.32c-4.2-.82-8.47-1.25-12.75-1.28-5.44,0-9.22,1.73-11.36,5.2-2.14,3.47-3.21,8.84-3.22,16.13,0,8.29,1.25,13.86,3.75,16.72,.96,1.22,2.22,2.18,3.65,2.79h0Z"/>
        <path class="cls-1" d="M1060.11,483.06v27.44c.21,2.66,2.28,4.23,6.21,4.72l-.32,6.33c-5.64,0-9.9-1.43-12.76-4.29-6.05,2.78-12.63,4.24-19.29,4.29-4.94,0-8.69-1.39-11.25-4.18-2.57-2.78-3.85-6.78-3.86-11.97,0-5.21,1.33-9.05,3.99-11.52s6.8-3.98,12.43-4.56l16.83-1.61v-4.61c0-3.65-.78-6.25-2.35-7.82-1.57-1.57-3.71-2.36-6.43-2.36-5.95,.01-11.89,.37-17.79,1.07l-3.33,.33-.32-6.11c6.87-1.46,13.87-2.25,20.9-2.35,6.07,0,10.48,1.39,13.24,4.18,2.75,2.78,4.12,7.13,4.1,13.04Zm-33.01,21.86c0,6.58,2.71,9.86,8.14,9.86,4.89,0,9.75-.84,14.36-2.47l2.47-.86v-17.69l-15.86,1.5c-3.21,.28-5.53,1.21-6.96,2.79s-2.15,3.86-2.14,6.86Z"/>
        <path class="cls-1" d="M1119.59,465.8c2.36,0,6.35,.43,11.97,1.28l2.57,.32-.32,6.54c-5.72-.64-9.93-.96-12.64-.96-6.07,0-10.2,1.45-12.38,4.34-2.18,2.9-3.27,8.25-3.27,16.08,0,7.82,1.02,13.27,3.05,16.34s6.27,4.61,12.7,4.61l12.64-.96,.32,6.65c-6.65,1-11.62,1.5-14.9,1.5-8.36,0-14.13-2.14-17.29-6.43s-4.76-11.52-4.77-21.7c0-10.2,1.71-17.35,5.14-21.44s9.15-6.15,17.17-6.17Z"/>
        <path class="cls-1" d="M1184.12,483.06v27.44c.21,2.66,2.29,4.23,6.22,4.72l-.33,6.33c-5.64,0-9.89-1.43-12.75-4.29-6.05,2.78-12.63,4.24-19.29,4.29-4.93,0-8.68-1.39-11.25-4.18-2.57-2.78-3.86-6.78-3.86-11.97s1.33-9.05,3.99-11.52,6.81-3.98,12.44-4.56l16.82-1.61v-4.61c0-3.65-.78-6.25-2.35-7.82-1.57-1.57-3.71-2.36-6.43-2.36-5.95,.01-11.89,.37-17.79,1.07l-3.33,.33-.33-6.11c6.88-1.46,13.88-2.25,20.91-2.35,6.07,0,10.48,1.39,13.24,4.18,2.76,2.78,4.12,7.13,4.1,13.04Zm-33.01,21.86c0,6.58,2.72,9.86,8.15,9.86,4.89,0,9.75-.84,14.36-2.47l2.46-.86v-17.69l-15.86,1.5c-3.22,.28-5.54,1.21-6.97,2.79-1.43,1.57-2.14,3.86-2.14,6.86Z"/>
        <path class="cls-1" d="M1216.81,472.98c-7.79,0-11.68,2.72-11.69,8.15,0,2.5,.9,4.27,2.66,5.32s5.86,2.11,12.22,3.21,10.86,2.66,13.51,4.66,3.99,5.75,3.99,11.25-1.77,9.54-5.32,12.11-8.7,3.86-15.48,3.86c-5.25-.07-10.48-.58-15.65-1.5l-3.21-.53,.43-6.97c8.15,1.22,14.3,1.83,18.44,1.82,4.14,0,7.3-.67,9.49-2,2.18-1.33,3.27-3.54,3.27-6.65s-.92-5.21-2.79-6.33-5.93-2.16-12.22-3.16-10.76-2.47-13.4-4.4-3.99-5.5-3.99-10.72,1.84-9.07,5.52-11.57,8.27-3.75,13.77-3.75c5.5,.1,10.98,.6,16.4,1.5l3,.54-.21,6.86c-7.91-1.14-14.15-1.7-18.72-1.7Z"/>
        <path class="cls-1" d="M1287.65,483.06v27.44c.21,2.66,2.29,4.23,6.22,4.72l-.32,6.33c-5.64,0-9.9-1.43-12.76-4.29-6.05,2.78-12.63,4.24-19.29,4.29-4.93,0-8.68-1.39-11.25-4.18-2.58-2.78-3.86-6.78-3.86-11.97,0-5.21,1.33-9.05,3.99-11.52s6.81-3.98,12.44-4.56l16.83-1.61v-4.61c0-3.65-.79-6.25-2.36-7.82-1.57-1.57-3.72-2.36-6.43-2.36-5.95,.01-11.89,.37-17.79,1.07l-3.33,.33-.32-6.11c6.87-1.46,13.87-2.25,20.9-2.35,6.07,0,10.49,1.39,13.24,4.18,2.75,2.78,4.12,7.13,4.1,13.04Zm-33.01,21.86c0,6.58,2.72,9.86,8.15,9.86,4.89,0,9.75-.84,14.36-2.47l2.47-.86v-17.69l-15.86,1.5c-3.22,.28-5.54,1.21-6.97,2.79s-2.14,3.86-2.14,6.86Z"/>
        <path class="cls-1" d="M1302.99,485.95v-12.22h8.79v12.22h-8.79Zm0,34.51v-12.22h8.79v12.22h-8.79Z"/>
        <path class="cls-1" d="M429.12,647.74h-8.04v-76.96h8.04v26.37c5.72-2.72,11.22-4.08,16.51-4.08,7.14,0,11.95,1.93,14.41,5.79,2.47,3.86,3.7,10.72,3.7,20.58v28.3h-8.04v-28.08c0-7.44-.73-12.54-2.2-15.3-1.46-2.76-4.55-4.14-9.27-4.12-4.47,0-8.91,.83-13.08,2.46l-2.04,.75v44.29Z"/>
        <path class="cls-1" d="M516.48,610.34v27.44c.21,2.66,2.29,4.23,6.22,4.72l-.33,6.33c-5.65,0-9.9-1.43-12.75-4.29-6.05,2.78-12.63,4.24-19.29,4.29-4.93,0-8.68-1.39-11.25-4.18-2.58-2.79-3.86-6.78-3.86-11.97,0-5.21,1.33-9.05,3.99-11.52s6.8-3.98,12.43-4.56l16.83-1.61v-4.6c0-3.65-.78-6.25-2.35-7.83s-3.71-2.36-6.43-2.35c-5.95,.01-11.89,.37-17.79,1.07l-3.33,.32-.33-6.11c6.87-1.46,13.87-2.25,20.9-2.36,6.08,0,10.49,1.39,13.24,4.18,2.75,2.79,4.12,7.14,4.1,13.04Zm-33.01,21.86c0,6.57,2.71,9.86,8.14,9.86,4.89,0,9.75-.84,14.37-2.46l2.46-.86v-17.69l-15.86,1.53c-3.22,.28-5.54,1.21-6.97,2.79-1.43,1.57-2.14,3.85-2.14,6.83Z"/>
        <path class="cls-1" d="M556.03,593.08c7.21,0,12.27,2.06,15.17,6.17,2.9,4.11,4.34,11.31,4.34,21.6s-1.8,17.53-5.41,21.7c-3.61,4.18-10.24,6.27-19.88,6.27-3,0-7.96-.29-14.9-.86l-3-.33v-76.85h7.93v26.05c4.92-2.38,10.29-3.66,15.76-3.75Zm-5.89,48.56c7,0,11.62-1.59,13.88-4.77,2.26-3.18,3.38-8.56,3.36-16.13,0-7.58-.89-12.88-2.66-15.92-1.77-3.03-4.95-4.55-9.54-4.56-4.36,.04-8.68,.84-12.76,2.37l-2.14,.75v37.73c4.64,.35,7.93,.53,9.86,.53Z"/>
        <path class="cls-1" d="M588.72,582.01v-9.31h8.04v9.31h-8.04Zm0,65.7v-53.56h8.04v53.59l-8.04-.03Z"/>
        <path class="cls-1" d="M639.95,601.12h-17.04v25.62c0,6.15,.44,10.18,1.33,12.11s3.01,2.89,6.38,2.89l9.54-.67,.54,6.65c-3.61,.67-7.27,1.07-10.94,1.18-5.57,0-9.43-1.36-11.57-4.08s-3.21-7.9-3.22-15.54v-28.18h-7.6v-6.97h7.61v-16.4h7.94v16.4h17.04v6.97Z"/>
        <path class="cls-1" d="M687.65,610.34v27.44c.21,2.66,2.28,4.23,6.21,4.72l-.32,6.33c-5.64,0-9.9-1.43-12.76-4.29-6.05,2.78-12.63,4.24-19.29,4.29-4.93,0-8.68-1.39-11.25-4.18-2.57-2.79-3.86-6.78-3.86-11.97s1.33-9.05,3.99-11.52,6.8-3.98,12.43-4.56l16.83-1.61v-4.6c0-3.65-.78-6.25-2.35-7.83s-3.71-2.36-6.43-2.35c-5.95,.01-11.89,.37-17.79,1.07l-3.33,.32-.32-6.11c6.87-1.46,13.87-2.25,20.9-2.36,6.07,0,10.48,1.39,13.24,4.18s4.12,7.14,4.1,13.04Zm-33.01,21.86c0,6.57,2.71,9.86,8.14,9.86,4.89,0,9.75-.84,14.37-2.46l2.46-.86v-17.69l-15.86,1.53c-3.21,.28-5.54,1.21-6.96,2.79-1.43,1.57-2.14,3.85-2.14,6.83h0Z"/>
        <path class="cls-1" d="M703.51,647.74v-53.59h7.93v7.32c5.89-4.14,12.56-7.03,19.62-8.47v8.15c-3.2,.62-6.33,1.51-9.38,2.66-2.55,.91-5.04,1.98-7.45,3.21l-2.66,1.4v39.33h-8.06Z"/>
        <path class="cls-1" d="M800.62,641.1l3.11-.32,.21,6.33c-6.92,1.04-13.9,1.62-20.9,1.72-7.72,0-13.18-2.23-16.4-6.7-3.22-4.47-4.83-11.42-4.82-20.86,0-18.79,7.47-28.18,22.4-28.19,7.21,0,12.61,2.02,16.18,6.06s5.36,10.38,5.36,19.02l-.43,6.11h-35.37c0,5.93,1.07,10.33,3.21,13.18s5.88,4.29,11.2,4.29c5.33,0,10.74-.2,16.24-.63Zm-2.89-23.28c0-6.58-1.06-11.23-3.17-13.97-2.11-2.74-5.54-4.1-10.29-4.08-4.75,0-8.32,1.43-10.72,4.29-2.39,2.86-3.63,7.43-3.7,13.72l27.87,.03Z"/>
        <path class="cls-1" d="M858.71,600.26c-7.79,0-11.68,2.72-11.68,8.15,0,2.5,.89,4.27,2.66,5.32,1.77,1.05,5.85,2.12,12.22,3.22,6.36,1.1,10.86,2.66,13.5,4.66s3.97,5.75,3.99,11.25c0,5.5-1.77,9.54-5.32,12.11-3.55,2.57-8.71,3.86-15.49,3.86-5.25-.08-10.48-.58-15.65-1.5l-3.21-.54,.43-6.96c8.15,1.22,14.3,1.83,18.44,1.82,4.14,0,7.3-.67,9.49-2,2.18-1.33,3.27-3.55,3.27-6.65,0-3.11-.92-5.21-2.79-6.33s-5.93-2.16-12.21-3.16-10.76-2.47-13.4-4.4-3.99-5.5-3.99-10.72,1.84-9.08,5.52-11.58,8.27-3.75,13.78-3.75c5.51,.1,11,.6,16.43,1.51l3,.53-.21,6.86c-7.93-1.14-14.18-1.72-18.75-1.72Z"/>
        <path class="cls-1" d="M889.37,620.84c0-9.79,1.75-16.87,5.25-21.23,3.5-4.36,9.41-6.54,17.74-6.54,8.32,0,14.22,2.18,17.69,6.54,3.47,4.36,5.2,11.43,5.2,21.23s-1.65,16.9-4.94,21.32-9.29,6.64-18.01,6.65c-8.72,0-14.72-2.22-18.01-6.65-3.29-4.43-4.93-11.54-4.93-21.32Zm8.25-.16c0,7.82,.95,13.31,2.85,16.45,1.9,3.14,5.86,4.72,11.89,4.72,6.04,0,9.99-1.55,11.85-4.66,1.86-3.1,2.79-8.59,2.79-16.45,0-7.86-1.04-13.28-3.11-16.24s-5.92-4.45-11.52-4.44c-5.61,0-9.47,1.48-11.57,4.44s-3.16,8.36-3.17,16.18Z"/>
        <path class="cls-1" d="M968.36,593.08c2.35,0,6.36,.43,12.01,1.29l2.57,.32-.32,6.54c-4.19-.53-8.41-.86-12.64-.96-6.08,0-10.21,1.45-12.39,4.34-2.18,2.89-3.27,8.25-3.27,16.08,0,7.82,1.02,13.27,3.05,16.34,2.04,3.07,6.27,4.61,12.7,4.61l12.64-.96,.32,6.65c-6.65,1-11.62,1.5-14.89,1.5-8.36,0-14.13-2.14-17.29-6.43s-4.76-11.52-4.77-21.7c0-10.2,1.72-17.34,5.15-21.44,3.43-4.09,9.14-6.15,17.13-6.17Z"/>
        <path class="cls-1" d="M995.07,582.01v-9.31h8.04v9.31h-8.04Zm0,65.7v-53.56h8.04v53.59l-8.04-.03Z"/>
        <path class="cls-1" d="M1056.35,610.34v27.44c.22,2.66,2.29,4.23,6.22,4.72l-.32,6.33c-5.65,0-9.9-1.43-12.76-4.29-6.05,2.78-12.63,4.24-19.29,4.29-4.94,0-8.69-1.39-11.26-4.18-2.57-2.79-3.86-6.78-3.86-11.97s1.33-9.05,3.99-11.52,6.8-3.98,12.43-4.56l16.83-1.61v-4.6c0-3.65-.79-6.25-2.36-7.83s-3.72-2.36-6.43-2.35c-5.95,.01-11.89,.37-17.79,1.07l-3.33,.32-.32-6.11c6.87-1.46,13.87-2.26,20.9-2.36,6.08,0,10.49,1.39,13.24,4.18,2.75,2.79,4.12,7.14,4.11,13.04Zm-33.01,21.86c0,6.57,2.72,9.86,8.15,9.86,4.89,0,9.75-.84,14.36-2.46l2.47-.86v-17.69l-15.86,1.53c-3.22,.28-5.54,1.21-6.97,2.79-1.43,1.57-2.14,3.85-2.14,6.83Z"/>
        <path class="cls-1" d="M1095.9,593.08c7.22,0,12.27,2.06,15.17,6.17,2.89,4.11,4.34,11.31,4.34,21.6,0,10.29-1.8,17.53-5.41,21.7s-10.24,6.27-19.88,6.27c-3,0-7.97-.29-14.9-.86l-3-.33v-76.85h7.93v26.05c4.92-2.38,10.29-3.66,15.76-3.75Zm-5.89,48.56c7.01,0,11.63-1.59,13.88-4.77,2.25-3.18,3.37-8.56,3.37-16.13s-.89-12.88-2.66-15.92-4.95-4.55-9.54-4.56c-4.35,.04-8.67,.84-12.75,2.35l-2.15,.75v37.73c4.64,.36,7.92,.54,9.84,.54Z"/>
        <path class="cls-1" d="M1128.59,582.01v-9.31h8.04v9.31h-8.04Zm0,65.7v-53.56h8.04v53.59l-8.04-.03Z"/>
        <path class="cls-1" d="M1152.71,647.74v-76.96h8.04v76.96h-8.04Z"/>
        <path class="cls-1" d="M1176.83,582.01v-9.31h8.04v9.31h-8.04Zm0,65.7v-53.56h8.04v53.59l-8.04-.03Z"/>
        <path class="cls-1" d="M1197.09,601.33v-7.18h39.76v7.18l-30.01,39.24h30.01v7.18h-39.76v-7.21l30.01-39.24-30.01,.03Z"/>
        <path class="cls-1" d="M1286.9,610.34v27.44c.21,2.66,2.28,4.23,6.21,4.72l-.32,6.33c-5.65,0-9.9-1.43-12.75-4.29-6.05,2.78-12.63,4.24-19.29,4.29-4.93,0-8.68-1.39-11.25-4.18-2.57-2.79-3.86-6.78-3.86-11.97s1.33-9.05,3.99-11.52,6.8-3.98,12.43-4.56l16.83-1.61v-4.6c0-3.65-.78-6.25-2.35-7.83-1.57-1.57-3.71-2.36-6.43-2.35-5.95,.01-11.89,.37-17.79,1.07l-3.33,.32-.32-6.11c6.87-1.46,13.87-2.25,20.9-2.36,6.07,0,10.48,1.39,13.24,4.18s4.12,7.14,4.1,13.04Zm-33.01,21.86c0,6.57,2.71,9.86,8.14,9.86,4.89,0,9.75-.84,14.37-2.46l2.46-.86v-17.69l-15.86,1.53c-3.21,.28-5.53,1.21-6.96,2.79-1.43,1.57-2.15,3.85-2.14,6.83Z"/>
        <path class="cls-1" d="M1302.77,647.74v-53.59h7.93v7.32c5.88-4.15,12.56-7.04,19.62-8.49v8.15c-3.2,.62-6.33,1.51-9.38,2.66-2.55,.91-5.04,1.98-7.45,3.21l-2.66,1.4v39.33l-8.06,.02Z"/>
        <rect class="cls-2" x="223.3" y="289.12" width="90.51" height="90.51"/>
        <path class="cls-1" d="M156.9,64.87L0,143.37v236.26H164.96V230.77h148.86v-87.39L156.9,64.87Zm140.83,149.82H148.87v148.86H16.08V153.31L156.9,82.85l140.83,70.46v61.38Z"/>
      </g>
    </g>
  </g>
</svg>